<?xml version="1.0" standalone="no"?>
<!DOCTYPE svg PUBLIC "-//W3C//DTD SVG 20010904//EN"
 "http://www.w3.org/TR/2001/REC-SVG-20010904/DTD/svg10.dtd">
<svg version="1.0" xmlns="http://www.w3.org/2000/svg"
 width="265.000000pt" height="265.000000pt" viewBox="0 0 265.000000 265.000000"
 preserveAspectRatio="xMidYMid meet">
<metadata>
Created by potrace 1.14, written by Peter Selinger 2001-2017
</metadata>
<g transform="translate(0.000000,265.000000) scale(0.100000,-0.100000)"
fill="#000000" stroke="none">
<path d="M0 1325 l0 -1325 1325 0 1325 0 0 1325 0 1325 -1325 0 -1325 0 0
-1325z m980 1165 c0 -5 -10 -10 -22 -10 -19 0 -20 2 -8 10 19 13 30 13 30 0z
m-20 -36 c0 -2 -9 -4 -21 -4 -11 0 -18 4 -14 10 5 8 35 3 35 -6z m340 -60 c0
-8 -5 -12 -10 -9 -6 4 -8 11 -5 16 9 14 15 11 15 -7z m68 -2 c9 9 12 9 12 1 0
-7 -9 -15 -20 -18 -11 -3 -20 -11 -20 -16 0 -5 -4 -9 -8 -9 -5 0 -9 14 -10 31
-1 29 0 30 17 15 13 -12 20 -13 29 -4z m-65 -38 c-2 -7 -13 -10 -24 -7 -27 7
-24 18 5 18 13 0 22 -5 19 -11z m112 -4 c-3 -5 -10 -10 -16 -10 -5 0 -9 5 -9
10 0 6 7 10 16 10 8 0 12 -4 9 -10z m-515 -31 c0 -6 -4 -7 -10 -4 -5 3 -10 11
-10 16 0 6 5 7 10 4 6 -3 10 -11 10 -16z m555 -8 c-6 -5 -25 10 -25 20 0 5 6
4 14 -3 8 -7 12 -15 11 -17z m-160 -58 c-4 -13 -3 -14 9 -3 13 10 19 9 31 -4
9 -9 19 -16 23 -17 4 0 17 -2 30 -5 19 -3 22 -1 17 15 -6 20 23 40 34 22 3 -5
31 -14 61 -19 30 -6 69 -18 85 -26 18 -9 31 -12 33 -6 2 6 15 10 30 10 20 0
23 -3 14 -12 -16 -16 -15 -28 1 -28 7 0 32 -11 57 -25 25 -14 59 -32 76 -40
17 -9 41 -25 53 -36 12 -12 28 -18 36 -15 8 3 17 1 20 -4 4 -6 1 -10 -4 -10
-6 0 -11 -4 -11 -10 0 -5 7 -10 16 -10 9 0 12 -5 8 -12 -5 -8 -2 -9 9 -5 9 3
19 2 22 -3 3 -5 22 -2 41 6 l36 15 -6 -26 c-4 -17 0 -36 11 -56 16 -26 22 -29
50 -24 35 6 55 -10 23 -20 -21 -7 -24 -14 -14 -39 3 -8 12 -12 21 -9 11 5 14
1 9 -13 -7 -25 8 -48 27 -41 26 10 27 -4 1 -27 -23 -19 -25 -24 -13 -49 11
-24 17 -27 43 -22 29 6 30 5 12 -9 -14 -11 -16 -19 -8 -28 6 -7 14 -46 17 -86
4 -40 12 -75 17 -78 5 -3 6 -21 2 -41 -6 -33 -5 -35 17 -29 20 6 22 5 9 -6
-21 -18 -23 -75 -3 -126 14 -36 14 -48 3 -81 -7 -21 -10 -45 -8 -52 4 -10 -25
-49 -36 -49 -1 0 -2 12 -2 26 -3 42 -26 47 -29 6 -1 -18 -6 -22 -31 -22 -11 0
-13 6 -9 19 4 13 0 23 -12 30 -10 6 -13 11 -6 11 19 0 3 30 -16 30 -14 1 -13
3 3 15 11 8 17 18 13 21 -4 4 -3 12 3 19 6 7 3 17 -10 28 -21 18 -41 4 -21
-16 15 -15 14 -37 -2 -37 -15 0 -21 -42 -7 -50 5 -3 13 -22 17 -40 6 -32 5
-34 -10 -21 -15 11 -17 11 -17 -2 0 -8 6 -17 13 -20 9 -3 9 -7 -2 -20 -9 -12
-10 -17 -2 -17 25 0 7 -54 -21 -68 -26 -12 -38 -32 -20 -32 7 0 47 30 85 64
21 20 41 20 57 1 8 -9 8 -15 2 -15 -6 0 -12 5 -14 12 -2 6 -10 8 -16 4 -15 -9
-16 -46 -1 -46 24 0 1 -88 -31 -120 -3 -3 -19 -21 -35 -40 -17 -19 -40 -37
-50 -38 -11 -2 -21 -8 -23 -13 -2 -5 -8 -9 -14 -9 -21 0 -36 -26 -26 -44 7
-12 7 -21 -1 -29 -8 -8 -11 -5 -11 11 0 12 -5 22 -11 22 -8 0 -9 13 -4 38 6
34 5 36 -8 17 -9 -11 -13 -23 -11 -26 2 -4 -3 -12 -11 -19 -8 -7 -15 -19 -15
-26 0 -8 -8 -14 -17 -14 -13 0 -14 -3 -6 -11 7 -7 18 -9 25 -7 7 3 17 6 22 6
5 0 13 6 18 14 8 10 9 10 6 -1 -2 -8 -18 -19 -35 -25 -18 -6 -35 -15 -40 -20
-4 -5 -3 -6 3 -3 7 4 15 0 18 -9 5 -13 9 -14 20 -5 11 9 15 7 19 -8 3 -14 -1
-19 -19 -19 -29 0 -57 -21 -50 -37 6 -17 -14 -35 -40 -35 -24 0 -40 -26 -21
-34 7 -3 1 -4 -13 -3 -16 1 -24 -3 -22 -11 1 -6 -1 -11 -5 -11 -25 4 -44 -3
-50 -18 -9 -24 -23 -33 -54 -33 -15 0 -30 -7 -33 -16 -4 -10 -13 -13 -24 -10
-12 4 -26 -1 -37 -14 -18 -20 -55 -28 -55 -11 0 15 -41 24 -53 12 -16 -16 -25
-14 -30 7 -4 13 -5 12 -6 -4 -1 -26 -24 -37 -41 -21 -10 10 -10 8 -2 -9 10
-19 8 -22 -21 -29 -18 -5 -36 -9 -42 -9 -5 -1 -19 -9 -29 -18 -18 -17 -21 -17
-38 -2 -12 11 -27 15 -48 11 -25 -5 -30 -3 -30 12 0 26 -58 50 -71 30 -7 -11
-9 -11 -9 3 0 9 10 18 23 21 12 2 2 4 -23 4 -25 0 -49 -3 -55 -7 -5 -3 -19 -7
-31 -7 -17 -1 -20 3 -16 28 5 33 -4 37 -25 11 -13 -15 -14 -15 -9 0 6 20 -4
28 -64 53 -25 10 -54 27 -66 37 -11 10 -28 18 -37 18 -9 0 -18 4 -22 10 -4 6
-15 6 -30 0 -23 -9 -25 -7 -20 13 4 16 -4 31 -30 57 -20 19 -43 43 -53 53 -9
9 -20 17 -25 17 -5 0 -1 -7 7 -16 17 -17 21 -34 8 -34 -11 0 -34 49 -28 59 3
4 -3 7 -12 8 -9 0 -40 10 -69 21 -38 15 -54 17 -63 8 -10 -8 -11 -5 -7 14 8
37 -5 61 -43 79 -37 18 -43 27 -60 90 -7 26 -25 57 -43 73 l-30 29 32 30 c26
23 32 35 27 54 -5 19 -1 26 24 37 17 7 30 19 30 26 0 10 -5 10 -21 2 -23 -13
-35 -8 -24 9 3 6 15 11 26 11 26 0 20 24 -7 28 -10 2 -23 9 -29 14 -7 7 -1 9
17 6 l28 -5 0 76 c0 143 35 305 95 444 4 10 3 17 -4 17 -6 0 -11 5 -11 11 0 6
7 9 15 5 21 -8 19 22 -3 47 -15 19 -16 20 0 14 13 -4 21 4 33 38 16 39 16 47
2 74 -14 28 -14 31 5 37 11 3 31 0 44 -7 20 -10 27 -10 44 6 11 10 22 27 26
37 12 39 37 58 76 58 36 0 37 0 27 32 -10 37 -7 43 18 30 33 -18 123 8 123 35
0 9 8 11 25 7 16 -4 37 1 60 15 34 20 35 20 35 1 0 -11 -4 -20 -10 -20 -12 0
-34 -40 -26 -47 3 -4 15 2 26 12 11 10 20 14 20 9 0 -16 48 -9 68 9 10 9 25
17 33 17 12 0 12 2 0 9 -20 13 24 34 55 27 31 -8 32 12 2 23 -21 8 -21 10 -5
16 9 4 23 2 30 -3 8 -7 18 -7 27 -2 8 5 18 6 22 4 4 -3 8 -2 8 3 0 4 18 9 41
10 33 1 39 -2 34 -14z m915 -373 c0 -5 -2 -10 -4 -10 -3 0 -8 5 -11 10 -3 6
-1 10 4 10 6 0 11 -4 11 -10z m95 -380 c3 -5 1 -10 -4 -10 -6 0 -11 5 -11 10
0 6 2 10 4 10 3 0 8 -4 11 -10z m35 -205 c0 -8 -2 -15 -4 -15 -2 0 -6 7 -10
15 -3 8 -1 15 4 15 6 0 10 -7 10 -15z m15 -55 c3 -5 1 -10 -4 -10 -6 0 -11 5
-11 10 0 6 2 10 4 10 3 0 8 -4 11 -10z m-125 -130 c0 -5 -5 -10 -11 -10 -5 0
-7 5 -4 10 3 6 8 10 11 10 2 0 4 -4 4 -10z m80 -60 c12 -8 11 -10 -7 -10 -13
0 -23 5 -23 10 0 13 11 13 30 0z m-72 -26 c6 3 21 2 34 -4 20 -8 18 -9 -16 -7
-25 1 -41 7 -43 17 -4 12 -3 13 5 1 5 -7 14 -11 20 -7z m118 4 c4 -7 3 -8 -4
-4 -7 4 -12 2 -12 -5 0 -7 -3 -10 -6 -6 -6 5 3 27 11 27 2 0 7 -5 11 -12z
m-112 -54 c7 -19 0 -34 -17 -34 -8 0 -8 3 2 9 9 6 10 11 2 15 -13 9 -15 26 -2
26 5 0 12 -7 15 -16z m-24 -48 c0 -2 -7 -6 -15 -10 -8 -3 -15 -1 -15 4 0 6 7
10 15 10 8 0 15 -2 15 -4z m45 -5 c3 -5 2 -12 -3 -15 -5 -3 -9 1 -9 9 0 17 3
19 12 6z m131 -82 c10 -17 -13 -36 -27 -22 -12 12 -4 33 11 33 5 0 12 -5 16
-11z m-406 -329 c0 -5 -5 -10 -11 -10 -5 0 -7 5 -4 10 3 6 8 10 11 10 2 0 4
-4 4 -10z m-1283 -22 c-3 -8 -6 -5 -6 6 -1 11 2 17 5 13 3 -3 4 -12 1 -19z
m133 -42 c0 -3 -4 -8 -10 -11 -5 -3 -10 -1 -10 4 0 6 5 11 10 11 6 0 10 -2 10
-4z m-57 -31 c-7 -21 -13 -19 -13 6 0 11 4 18 10 14 5 -3 7 -12 3 -20z m686
-36 c-8 -5 -21 -9 -29 -9 -12 1 -11 4 4 15 10 8 23 12 29 8 5 -3 3 -9 -4 -14z
m344 -34 c7 -16 -8 -29 -23 -20 -10 6 -2 35 10 35 4 0 10 -7 13 -15z m-269
-49 c-3 -8 -13 -12 -27 -8 -20 5 -20 6 -1 13 29 11 34 10 28 -5z m-165 -66
c12 -22 18 -40 13 -40 -6 0 -12 7 -16 15 -3 8 -13 15 -23 15 -14 0 -15 2 -4 9
9 6 10 11 2 15 -13 8 -15 26 -3 26 5 0 18 -18 31 -40z m191 36 c0 -2 -7 -7
-16 -10 -8 -3 -12 -2 -9 4 6 10 25 14 25 6z m-145 -46 c3 -6 -1 -7 -9 -4 -18
7 -21 14 -7 14 6 0 13 -4 16 -10z m42 -25 c7 -21 7 -37 2 -41 -5 -3 -9 0 -9 5
0 6 -7 11 -16 11 -13 0 -14 3 -4 15 7 8 10 22 6 30 -3 8 -2 15 3 15 4 0 12
-16 18 -35z m-164 -5 c-3 -11 -7 -20 -9 -20 -2 0 -4 9 -4 20 0 11 4 20 9 20 5
0 7 -9 4 -20z m232 10 c8 -13 -5 -13 -25 0 -13 8 -13 10 2 10 9 0 20 -4 23
-10z"/>
<path d="M1427 2200 c-3 -11 -1 -20 4 -20 5 0 9 9 9 20 0 11 -2 20 -4 20 -2 0
-6 -9 -9 -20z"/>
<path d="M1453 2171 c2 -26 4 -28 16 -16 12 12 12 16 -2 30 -15 14 -16 13 -14
-14z"/>
<path d="M1500 2179 c0 -9 -7 -22 -15 -29 -8 -7 -15 -19 -15 -27 0 -9 9 -5 25
12 20 20 24 29 16 43 -9 15 -10 15 -11 1z"/>
<path d="M1390 2150 c0 -11 4 -20 8 -20 4 0 8 9 9 20 1 11 -2 20 -8 20 -5 0
-9 -9 -9 -20z"/>
<path d="M1418 2136 c-3 -14 0 -28 6 -31 8 -3 7 -7 -2 -11 -6 -3 -10 -10 -6
-15 3 -5 0 -9 -6 -9 -6 0 -9 -4 -6 -8 3 -5 15 -8 28 -6 13 1 32 3 43 4 17 2
16 3 -5 9 -20 5 -25 14 -27 40 -2 43 -19 61 -25 27z"/>
<path d="M1523 2125 c-17 -19 -16 -35 2 -35 9 0 15 9 15 25 0 29 -1 29 -17 10z"/>
<path d="M1330 2080 c0 -5 7 -10 15 -10 8 0 15 -7 15 -15 0 -8 6 -15 14 -15 8
0 17 -8 20 -17 6 -15 8 -15 16 -3 11 17 -5 40 -29 40 -13 1 -13 3 3 15 19 14
18 15 -17 15 -20 0 -37 -4 -37 -10z"/>
<path d="M1780 2059 c0 -5 5 -7 10 -4 6 3 10 8 10 11 0 2 -4 4 -10 4 -5 0 -10
-5 -10 -11z"/>
<path d="M890 2031 c0 -5 5 -13 10 -16 6 -3 10 -2 10 4 0 5 -4 13 -10 16 -5 3
-10 2 -10 -4z"/>
<path d="M1432 2002 c2 -19 14 -33 40 -47 20 -11 73 -60 119 -108 83 -89 132
-126 144 -107 3 6 -1 13 -9 16 -19 7 -21 34 -3 34 8 0 19 -11 25 -25 12 -26
38 -36 28 -10 -7 18 5 20 22 3 9 -9 12 -9 12 1 0 7 -9 15 -20 18 -18 5 -18 7
-4 29 20 30 10 48 -17 33 -11 -6 -27 -8 -35 -5 -8 3 -12 2 -9 -3 9 -16 -13
-23 -35 -11 -16 9 -19 15 -10 25 9 10 6 15 -9 20 -25 7 -27 21 -6 29 9 3 15
19 15 41 0 21 -4 34 -10 30 -5 -3 -7 -19 -3 -35 6 -31 -1 -36 -26 -21 -12 8
-13 12 -1 25 7 9 10 19 7 22 -3 3 -11 -3 -18 -14 -12 -18 -16 -19 -38 -7 -14
7 -33 23 -41 34 -8 12 -19 21 -24 21 -5 0 -18 7 -28 17 -10 9 -30 18 -44 19
-22 2 -25 -1 -22 -24z m188 -133 c0 -11 -4 -17 -10 -14 -5 3 -10 13 -10 21 0
8 5 14 10 14 6 0 10 -9 10 -21z"/>
<path d="M1752 2011 c2 -7 7 -12 11 -12 12 1 9 15 -3 20 -7 2 -11 -2 -8 -8z"/>
<path d="M765 2000 c-3 -5 -1 -10 4 -10 6 0 11 5 11 10 0 6 -2 10 -4 10 -3 0
-8 -4 -11 -10z"/>
<path d="M914 1979 c-3 -6 -15 -9 -25 -6 -11 3 -19 1 -19 -4 0 -5 6 -9 14 -9
8 0 16 -4 18 -10 2 -5 8 2 15 15 11 25 10 34 -3 14z"/>
<path d="M1940 1969 c0 -5 5 -7 10 -4 6 3 10 8 10 11 0 2 -4 4 -10 4 -5 0 -10
-5 -10 -11z"/>
<path d="M1970 1955 c-11 -13 -10 -14 4 -9 9 3 16 10 16 15 0 13 -6 11 -20 -6z"/>
<path d="M1010 1940 c0 -11 2 -20 4 -20 2 0 6 9 9 20 3 11 1 20 -4 20 -5 0 -9
-9 -9 -20z"/>
<path d="M1887 1941 c-4 -17 -3 -21 5 -13 5 5 8 16 6 23 -3 8 -7 3 -11 -10z"/>
<path d="M800 1935 c0 -16 16 -20 24 -6 3 5 -1 11 -9 15 -9 3 -15 0 -15 -9z"/>
<path d="M945 1941 c-3 -5 -1 -12 5 -16 5 -3 10 1 10 9 0 18 -6 21 -15 7z"/>
<path d="M776 1927 c3 -10 9 -15 12 -12 3 3 0 11 -7 18 -10 9 -11 8 -5 -6z"/>
<path d="M1365 1930 c-3 -5 -1 -10 4 -10 6 0 11 5 11 10 0 6 -2 10 -4 10 -3 0
-8 -4 -11 -10z"/>
<path d="M1916 1924 c-11 -7 -17 -17 -13 -20 3 -4 14 1 23 10 21 22 15 28 -10
10z"/>
<path d="M1980 1920 c-13 -8 -13 -10 2 -10 9 0 20 5 23 10 8 13 -5 13 -25 0z"/>
<path d="M645 1910 c3 -5 8 -10 11 -10 2 0 4 5 4 10 0 6 -5 10 -11 10 -5 0 -7
-4 -4 -10z"/>
<path d="M740 1910 c0 -5 5 -10 10 -10 6 0 10 5 10 10 0 6 -4 10 -10 10 -5 0
-10 -4 -10 -10z"/>
<path d="M1950 1880 c0 -5 7 -7 15 -4 8 4 15 8 15 10 0 2 -7 4 -15 4 -8 0 -15
-4 -15 -10z"/>
<path d="M1800 1850 c0 -5 5 -10 10 -10 6 0 10 5 10 10 0 6 -4 10 -10 10 -5 0
-10 -4 -10 -10z"/>
<path d="M2055 1850 c-3 -5 -2 -10 4 -10 5 0 13 5 16 10 3 6 2 10 -4 10 -5 0
-13 -4 -16 -10z"/>
<path d="M1955 1840 c-8 -13 5 -13 25 0 13 8 13 10 -2 10 -9 0 -20 -4 -23 -10z"/>
<path d="M594 1832 c7 -12 -17 -45 -27 -36 -3 3 -3 -4 0 -17 5 -16 8 -19 11
-9 3 8 13 22 24 31 17 15 17 17 1 30 -12 10 -14 10 -9 1z"/>
<path d="M1540 1829 c0 -5 4 -8 9 -5 7 5 21 -14 21 -29 0 -2 -16 -1 -35 2 -40
6 -43 1 -15 -27 21 -21 35 -27 25 -10 -3 6 -1 10 4 10 6 0 11 -7 11 -15 0 -8
5 -16 10 -16 6 -1 15 -2 21 -3 18 -2 46 -48 42 -70 -4 -20 -4 -20 11 -2 16 20
6 56 -16 56 -7 0 -6 6 2 15 11 14 7 23 -30 60 -44 45 -60 54 -60 34z m50 -79
c0 -5 -2 -10 -4 -10 -3 0 -8 5 -11 10 -3 6 -1 10 4 10 6 0 11 -4 11 -10z"/>
<path d="M2023 1822 c-8 -18 3 -26 24 -17 10 5 20 8 23 8 3 -1 10 4 16 11 9
10 3 12 -24 12 -19 -1 -37 -7 -39 -14z"/>
<path d="M1360 1811 c0 -5 7 -11 15 -15 8 -3 15 -10 15 -15 0 -6 -7 -8 -15 -5
-11 5 -13 2 -9 -10 3 -9 10 -13 15 -10 5 3 9 -1 9 -9 0 -8 7 -18 16 -21 13 -5
15 -2 11 16 -4 12 -1 28 5 35 8 10 5 13 -11 13 -12 0 -24 7 -27 15 -7 16 -24
21 -24 6z"/>
<path d="M1440 1790 c0 -11 7 -20 16 -20 8 0 13 -4 10 -9 -3 -5 -15 -7 -26 -4
-19 5 -20 3 -10 -23 6 -16 8 -25 4 -21 -4 4 -13 2 -21 -4 -15 -13 -18 -33 -4
-24 5 3 13 -5 17 -17 4 -13 16 -32 28 -44 23 -23 79 -39 73 -20 -2 6 -13 12
-25 14 -12 2 -22 7 -22 12 0 5 -9 12 -20 15 -22 7 -28 49 -9 61 8 5 10 -1 5
-19 -6 -25 8 -46 22 -32 4 4 1 10 -6 12 -20 7 -4 22 18 16 11 -3 20 -12 20
-19 0 -23 14 -16 28 13 8 19 9 30 1 37 -7 8 -9 7 -7 -4 2 -8 -3 -15 -9 -14 -7
1 -23 2 -35 3 -21 1 -21 1 -3 21 10 12 25 18 32 16 21 -8 15 0 -24 38 -44 41
-53 44 -53 16z"/>
<path d="M1815 1798 c11 -6 24 -16 28 -22 6 -7 7 -4 4 6 -3 9 -1 19 6 22 7 2
-4 5 -23 5 -31 0 -33 -1 -15 -11z"/>
<path d="M1330 1780 c0 -5 5 -10 11 -10 5 0 7 5 4 10 -3 6 -8 10 -11 10 -2 0
-4 -4 -4 -10z"/>
<path d="M2090 1779 c0 -5 5 -7 10 -4 6 3 10 8 10 11 0 2 -4 4 -10 4 -5 0 -10
-5 -10 -11z"/>
<path d="M2040 1773 c0 -10 19 -40 21 -33 0 3 2 13 4 23 2 9 -3 17 -11 17 -8
0 -14 -3 -14 -7z"/>
<path d="M1850 1741 c0 -19 17 -38 25 -29 7 7 -7 48 -16 48 -5 0 -9 -9 -9 -19z"/>
<path d="M1980 1708 c0 -22 5 -28 23 -28 22 -1 22 -1 -3 -15 -39 -22 -4 -17
41 6 44 22 48 36 7 20 -30 -11 -53 1 -45 24 4 9 11 13 17 10 6 -4 8 -10 5 -14
-2 -5 7 -6 20 -3 14 2 28 9 31 14 4 6 -2 7 -15 3 -12 -4 -27 -2 -34 3 -25 19
-47 10 -47 -20z"/>
<path d="M2090 1720 c-8 -16 -8 -20 3 -20 8 0 17 9 20 20 3 11 1 20 -4 20 -4
0 -13 -9 -19 -20z"/>
<path d="M1905 1700 c3 -5 11 -10 16 -10 6 0 7 5 4 10 -3 6 -11 10 -16 10 -6
0 -7 -4 -4 -10z"/>
<path d="M1350 1680 c0 -5 7 -10 16 -10 8 0 12 5 9 10 -3 6 -10 10 -16 10 -5
0 -9 -4 -9 -10z"/>
<path d="M2075 1670 c-10 -11 -24 -20 -32 -20 -8 0 -11 -5 -7 -11 4 -7 10 -7
16 -1 6 6 16 8 23 6 17 -7 41 24 28 37 -6 6 -16 2 -28 -11z"/>
<path d="M1287 1658 c2 -5 15 -8 29 -8 13 0 24 3 24 8 0 4 -13 7 -29 7 -16 0
-27 -3 -24 -7z"/>
<path d="M1725 1659 c-11 -17 1 -21 15 -4 8 9 8 15 2 15 -6 0 -14 -5 -17 -11z"/>
<path d="M2103 1633 c-13 -36 -6 -53 18 -53 17 0 18 3 9 21 -7 11 -9 23 -6 27
3 3 6 -1 6 -9 0 -12 2 -12 10 1 5 9 5 19 -2 27 -16 20 -25 16 -35 -14z"/>
<path d="M870 1630 c0 -5 5 -10 10 -10 6 0 10 5 10 10 0 6 -4 10 -10 10 -5 0
-10 -4 -10 -10z"/>
<path d="M1310 1608 c0 -19 -2 -20 -10 -8 -8 13 -10 12 -10 -2 0 -10 7 -18 15
-18 9 0 15 9 15 25 0 14 -2 25 -5 25 -3 0 -5 -10 -5 -22z"/>
<path d="M1400 1618 c0 -11 -6 -14 -20 -11 -12 3 -20 0 -20 -6 0 -7 5 -9 10
-6 6 3 10 4 10 0 0 -3 -10 -10 -22 -16 -21 -9 -21 -9 4 -4 16 3 28 0 31 -8 2
-6 7 3 11 21 5 18 5 36 2 39 -3 4 -6 -1 -6 -9z"/>
<path d="M1335 1610 c3 -5 8 -10 11 -10 2 0 4 5 4 10 0 6 -5 10 -11 10 -5 0
-7 -4 -4 -10z"/>
<path d="M1435 1612 c-6 -4 -11 -24 -13 -44 -3 -39 8 -47 38 -28 12 8 10 10
-8 10 -14 0 -21 4 -17 11 4 6 13 8 21 5 8 -3 14 -1 14 4 0 6 -7 10 -15 10 -8
0 -15 5 -15 11 0 5 5 7 10 4 6 -3 10 -2 10 4 0 14 -14 21 -25 13z"/>
<path d="M2055 1610 c-3 -6 1 -7 9 -4 18 7 21 14 7 14 -6 0 -13 -4 -16 -10z"/>
<path d="M1676 1592 c-2 -4 4 -9 15 -9 11 -1 17 2 14 8 -7 11 -22 12 -29 1z"/>
<path d="M2070 1590 c0 -5 5 -10 10 -10 6 0 10 5 10 10 0 6 -4 10 -10 10 -5 0
-10 -4 -10 -10z"/>
<path d="M1515 1571 c19 -8 19 -8 0 -20 -18 -11 -18 -12 -2 -7 10 3 21 6 23 6
2 0 4 7 4 15 0 9 -9 15 -22 14 -21 0 -22 -1 -3 -8z"/>
<path d="M1215 1550 c3 -5 8 -10 11 -10 2 0 4 5 4 10 0 6 -5 10 -11 10 -5 0
-7 -4 -4 -10z"/>
<path d="M1575 1550 c-3 -5 3 -10 14 -10 12 0 21 5 21 10 0 6 -6 10 -14 10 -8
0 -18 -4 -21 -10z"/>
<path d="M2110 1550 c0 -13 11 -13 30 0 12 8 11 10 -7 10 -13 0 -23 -4 -23
-10z"/>
<path d="M1295 1541 c-6 -11 9 -23 19 -14 9 9 7 23 -3 23 -6 0 -12 -4 -16 -9z"/>
<path d="M1330 1515 c0 -27 3 -33 16 -28 14 5 14 3 3 -15 -15 -23 -33 -15 -44
19 -4 12 -15 19 -28 18 -16 -1 -17 -3 -5 -6 28 -7 31 -33 3 -33 -15 0 -29 -9
-36 -22 -15 -29 -28 -38 -46 -31 -29 11 -12 49 20 44 4 0 7 8 7 19 0 11 7 20
16 20 8 0 12 5 9 10 -8 12 -55 13 -55 1 0 -4 -10 -6 -23 -4 -15 3 -31 -4 -50
-22 -28 -29 -27 -50 3 -40 11 3 20 0 24 -10 3 -8 12 -15 20 -15 15 0 30 -27
18 -33 -4 -2 -20 -7 -35 -11 -15 -4 -25 -11 -22 -16 11 -17 92 16 98 41 7 26
27 24 27 -3 0 -18 2 -20 10 -8 5 8 12 11 16 7 4 -4 13 -2 20 4 9 8 11 5 7 -10
-3 -12 -2 -29 2 -38 4 -10 8 -28 9 -40 1 -13 10 -31 20 -40 18 -17 19 -17 11
2 -14 36 -22 106 -13 111 4 3 6 9 3 14 -3 4 4 6 15 3 12 -3 20 0 20 6 0 7 4
10 8 7 9 -6 31 60 23 71 -3 4 -19 14 -34 22 -16 9 -26 20 -23 28 3 7 1 13 -4
13 -6 0 -10 -16 -10 -35z m32 -87 c-8 -8 -9 -4 -5 13 4 13 8 18 11 10 2 -7 -1
-18 -6 -23z m-82 8 c0 -8 -4 -18 -10 -21 -5 -3 -10 -4 -10 -1 0 2 -3 11 -6 20
-4 11 -1 16 10 16 9 0 16 -6 16 -14z"/>
<path d="M1008 1498 c-12 -15 -15 -25 -8 -32 15 -15 12 -26 -4 -20 -16 6 -17
-26 -2 -37 5 -4 6 -14 3 -23 -5 -12 -14 -15 -31 -10 -32 8 -40 -9 -11 -22 37
-18 70 4 69 44 -1 18 1 32 5 32 12 0 41 -35 41 -48 0 -7 7 -12 15 -12 19 0 17
60 -2 67 -9 4 -8 11 5 31 9 14 12 23 5 19 -7 -4 -18 2 -27 15 -13 17 -16 19
-16 6 0 -9 7 -24 16 -32 14 -15 14 -16 -3 -16 -10 0 -25 5 -33 10 -12 7 -12
12 -2 22 6 6 12 16 12 20 0 15 -15 8 -32 -14z"/>
<path d="M1390 1516 c0 -10 28 -13 41 -5 10 6 7 9 -13 9 -16 0 -28 -2 -28 -4z"/>
<path d="M1460 1504 c0 -8 5 -12 10 -9 6 4 8 11 5 16 -9 14 -15 11 -15 -7z"/>
<path d="M1790 1500 c0 -5 5 -10 11 -10 5 0 7 5 4 10 -3 6 -8 10 -11 10 -2 0
-4 -4 -4 -10z"/>
<path d="M1420 1481 c0 -11 -4 -23 -10 -26 -19 -11 -10 -25 14 -23 18 2 22 6
17 17 -5 7 -6 22 -4 32 3 11 0 19 -6 19 -6 0 -11 -9 -11 -19z"/>
<path d="M1460 1451 c0 -5 6 -12 13 -14 9 -4 9 -8 -2 -15 -17 -12 0 -47 27
-54 15 -4 18 -1 14 18 -2 13 -8 24 -13 24 -5 0 -6 6 -3 14 3 8 -3 19 -15 26
-12 6 -21 7 -21 1z"/>
<path d="M1115 1430 c-3 -5 -1 -10 4 -10 6 0 11 5 11 10 0 6 -2 10 -4 10 -3 0
-8 -4 -11 -10z"/>
<path d="M1760 1410 c0 -5 6 -10 14 -10 8 0 18 5 21 10 3 6 -3 10 -14 10 -12
0 -21 -4 -21 -10z"/>
<path d="M1702 1380 c0 -14 2 -19 5 -12 2 6 2 18 0 25 -3 6 -5 1 -5 -13z"/>
<path d="M858 1383 c6 -2 18 -2 25 0 6 3 1 5 -13 5 -14 0 -19 -2 -12 -5z"/>
<path d="M1648 1383 c-9 -2 -20 -13 -23 -24 -7 -22 -25 -25 -43 -7 -6 6 -15 8
-19 4 -10 -9 27 -38 42 -32 6 2 11 -4 11 -14 0 -10 -3 -18 -6 -18 -23 2 -40
-4 -35 -12 3 -5 -9 -14 -27 -19 -29 -8 -30 -9 -8 -10 20 -1 25 -7 27 -31 2
-33 1 -34 -25 -21 -22 11 -106 31 -132 31 -15 0 -20 7 -21 28 0 26 -1 26 -9 5
-8 -19 -17 -23 -54 -23 l-44 0 -12 50 c-6 27 -9 54 -5 60 3 5 3 10 -2 10 -4
-1 -23 -21 -41 -46 -18 -24 -37 -42 -43 -39 -22 14 -155 46 -184 44 -26 -2
-52 4 -78 18 -4 3 -12 -8 -18 -24 -12 -35 -70 -78 -80 -61 -6 9 -13 7 -28 -6
-20 -18 -51 -16 -51 4 0 8 6 8 20 0 14 -7 20 -7 20 0 0 5 -5 10 -11 10 -5 0
-7 5 -3 11 4 7 -7 4 -24 -7 -29 -17 -62 -12 -34 5 7 4 10 15 6 24 -8 21 0 22
20 1 19 -18 21 -2 4 25 -9 15 -16 17 -30 10 -10 -5 -18 -6 -17 -2 7 42 -14 42
-34 1 -15 -30 -15 -35 0 -57 8 -13 11 -21 5 -17 -14 8 -42 -3 -42 -17 0 -8 3
-8 11 0 7 7 20 8 34 3 13 -5 33 -6 45 -3 16 4 21 3 16 -5 -4 -7 -14 -12 -21
-12 -15 0 -14 -6 7 -62 12 -32 28 -37 28 -9 0 11 -8 22 -17 24 -15 4 -15 5 2
6 15 1 17 3 7 10 -11 7 -11 9 2 14 9 4 16 2 16 -3 0 -13 50 11 50 24 1 12 30
-23 30 -36 0 -4 -5 -7 -11 -5 -6 1 -14 -4 -17 -12 -2 -8 -1 -11 4 -8 5 3 9 -6
9 -19 0 -15 -6 -24 -15 -24 -18 0 -40 -19 -40 -34 0 -6 5 -4 10 4 8 13 13 13
30 2 16 -10 25 -10 35 -2 10 8 13 5 13 -15 0 -14 -4 -28 -9 -31 -16 -10 -9
-24 12 -24 15 0 19 -5 15 -15 -3 -8 -1 -15 5 -15 6 0 9 -6 6 -13 -3 -8 -1 -20
4 -28 6 -10 9 -8 9 10 0 19 3 21 15 11 8 -6 18 -9 24 -6 9 6 23 -23 20 -40 -6
-37 2 -49 37 -51 23 -1 34 2 31 10 -2 7 -12 12 -23 12 -13 0 -18 7 -17 20 5
63 19 77 48 49 10 -11 13 -19 6 -23 -7 -5 -4 -13 8 -23 12 -10 23 -13 32 -7
10 6 11 11 3 17 -11 7 -27 39 -28 57 -1 11 -79 11 -115 0 -21 -7 -22 -6 -12
14 10 18 9 21 -6 21 -30 0 -46 16 -39 37 5 15 13 19 30 16 13 -3 34 0 46 7 17
9 20 17 15 38 -7 32 -40 62 -67 62 -11 0 -18 5 -15 13 5 13 6 13 50 2 17 -5
27 -3 27 4 0 6 -4 11 -10 11 -19 0 -10 16 9 17 11 1 21 -6 23 -15 3 -14 6 -13
17 6 10 20 10 27 -3 47 -9 14 -16 26 -16 29 0 9 104 -6 118 -17 7 -5 26 -17
44 -27 17 -9 32 -23 34 -32 1 -9 5 -26 9 -39 5 -19 4 -21 -4 -9 -9 12 -11 12
-11 1 0 -10 -11 -12 -47 -8 -27 3 -66 2 -88 -2 -47 -10 -35 -13 60 -15 56 -1
69 -4 67 -16 -2 -8 -4 -22 -5 -32 -1 -9 -4 -16 -7 -16 -20 2 -29 -4 -24 -17 4
-9 0 -15 -7 -15 -10 -1 -8 -5 4 -15 26 -19 35 -92 13 -101 -9 -3 -16 -15 -16
-25 0 -10 -7 -19 -15 -19 -19 0 -19 -10 -1 -44 13 -25 14 -25 19 -6 3 13 1 18
-6 13 -7 -4 -6 1 2 10 19 24 30 21 25 -5 -4 -22 -4 -22 5 -3 5 12 16 27 25 34
10 8 14 22 10 36 -4 16 3 31 26 54 17 17 37 31 43 32 7 0 3 4 -8 9 -11 5 -14
9 -7 9 10 1 12 9 7 29 -3 16 -2 38 2 49 l8 21 46 -22 c25 -11 53 -29 63 -38
19 -20 43 -14 51 13 4 11 11 17 16 14 5 -4 16 -2 25 3 14 8 14 10 0 21 -13 11
-19 8 -39 -13 -25 -26 -44 -35 -31 -14 4 6 3 8 -4 4 -15 -9 -152 55 -152 70 0
24 20 25 21 2 1 -21 1 -21 9 4 12 42 21 52 30 37 7 -10 11 -10 24 0 21 18 70
6 62 -15 -8 -22 4 -40 15 -23 8 12 11 11 19 -3 16 -26 69 -34 85 -11 13 17 14
17 20 -2 12 -40 44 -90 56 -87 6 1 22 -4 35 -13 23 -15 23 -15 42 47 19 62 19
63 0 77 -12 8 -16 17 -10 23 5 5 6 30 1 59 -8 53 -1 85 26 112 17 17 14 18
-17 10z m-695 -107 c4 -10 1 -13 -9 -9 -15 6 -19 23 -5 23 5 0 11 -7 14 -14z
m-43 -11 c-7 -8 -17 -15 -22 -15 -11 0 14 29 26 30 5 0 3 -7 -4 -15z m716 -27
c1 -20 -5 -37 -15 -44 -23 -17 -33 -7 -19 19 12 22 14 28 17 47 3 24 16 7 17
-22z m-365 -21 c-10 -9 -11 -8 -5 6 3 10 9 15 12 12 3 -3 0 -11 -7 -18z m189
-27 c0 -5 -9 -10 -19 -10 -11 0 -23 5 -26 10 -4 6 5 10 19 10 14 0 26 -4 26
-10z m35 -9 c3 -5 1 -12 -4 -15 -5 -3 -11 1 -15 9 -6 16 9 21 19 6z m93 -44
c12 -18 22 -36 22 -39 0 -7 -50 3 -51 11 -6 33 -7 61 -1 61 4 0 17 -15 30 -33z
m57 -37 c3 -5 1 -10 -4 -10 -6 0 -11 5 -11 10 0 6 2 10 4 10 3 0 8 -4 11 -10z
m-405 -15 c0 -8 -4 -15 -10 -15 -5 0 -10 7 -10 15 0 8 5 15 10 15 6 0 10 -7
10 -15z m-60 -159 c0 -16 -18 -31 -27 -22 -8 8 5 36 17 36 5 0 10 -6 10 -14z"/>
<path d="M1550 1131 c0 -5 5 -13 10 -16 6 -3 10 -2 10 4 0 5 -4 13 -10 16 -5
3 -10 2 -10 -4z"/>
<path d="M840 1350 c8 -5 11 -10 5 -10 -5 0 -2 -5 8 -11 9 -5 17 -15 17 -20 0
-6 -4 -8 -9 -5 -10 7 -47 -32 -38 -40 3 -3 15 4 26 15 12 12 26 21 31 21 6 0
1 14 -12 30 -12 17 -27 30 -32 30 -6 0 -4 -5 4 -10z"/>
<path d="M1720 1350 c0 -5 7 -10 16 -10 8 0 12 5 9 10 -3 6 -10 10 -16 10 -5
0 -9 -4 -9 -10z"/>
<path d="M1555 1310 c3 -5 8 -10 11 -10 2 0 4 5 4 10 0 6 -5 10 -11 10 -5 0
-7 -4 -4 -10z"/>
<path d="M1895 1310 c3 -5 8 -10 11 -10 2 0 4 5 4 10 0 6 -5 10 -11 10 -5 0
-7 -4 -4 -10z"/>
<path d="M1860 1295 c0 -9 9 -15 21 -15 18 0 19 2 5 15 -8 8 -17 15 -20 15 -3
0 -6 -7 -6 -15z"/>
<path d="M616 1282 c-3 -6 -1 -14 5 -17 15 -10 25 3 12 16 -7 7 -13 7 -17 1z"/>
<path d="M1802 1272 l-22 -3 22 -20 23 -20 -28 4 c-28 4 -45 -7 -27 -18 17
-10 11 -23 -12 -27 -16 -2 -27 -18 -44 -65 -13 -35 -25 -77 -26 -94 -1 -17 -6
-33 -11 -36 -5 -3 -3 -9 4 -13 10 -7 10 -11 0 -24 -19 -22 1 -20 41 4 18 11
41 20 52 20 15 0 16 3 6 15 -16 19 -39 19 -46 0 -6 -14 -8 -13 -19 2 -14 19
-11 33 8 33 7 0 6 -4 -3 -10 -13 -8 -13 -10 1 -10 9 0 20 8 23 17 6 15 8 15
16 3 8 -12 10 -12 10 -1 0 8 6 11 16 7 11 -4 14 -1 12 12 -4 24 10 42 27 35
11 -3 15 2 15 17 0 18 3 20 14 11 11 -9 15 -7 19 8 4 16 0 19 -22 18 -20 -2
-27 3 -29 21 -2 15 2 22 12 22 9 0 16 5 16 10 0 7 6 7 19 0 30 -16 36 -12 16
10 -9 10 -22 18 -29 17 -6 -1 -11 7 -10 19 0 27 -15 40 -44 36z"/>
<path d="M564 1226 c12 -19 14 -35 7 -70 -7 -37 -5 -48 9 -61 21 -19 26 -19
34 1 3 9 2 12 -5 9 -5 -4 -18 -4 -27 0 -15 6 -14 8 7 16 17 7 22 15 18 29 -3
11 -1 20 4 20 6 0 6 7 1 18 -5 9 -8 25 -7 35 3 15 1 16 -11 6 -13 -10 -18 -6
-15 14 0 4 -6 7 -15 7 -15 0 -15 -2 0 -24z"/>
<path d="M1868 1243 c6 -2 18 -2 25 0 6 3 1 5 -13 5 -14 0 -19 -2 -12 -5z"/>
<path d="M1086 1221 c-17 -6 -17 -8 -4 -14 24 -9 63 3 46 14 -15 10 -17 10
-42 0z"/>
<path d="M627 1213 c-4 -7 -3 -14 3 -18 5 -3 10 -16 11 -28 0 -21 1 -21 8 -2
5 11 5 22 1 25 -4 3 -9 12 -12 20 -3 10 -6 11 -11 3z"/>
<path d="M1350 1195 c-1 -5 -2 -13 -1 -17 0 -5 -7 -8 -16 -8 -25 0 -4 -16 32
-24 26 -6 28 -6 13 6 -9 7 -18 22 -21 33 -3 11 -6 16 -7 10z"/>
<path d="M1915 1170 c3 -5 8 -10 11 -10 2 0 4 5 4 10 0 6 -5 10 -11 10 -5 0
-7 -4 -4 -10z"/>
<path d="M674 1142 c-1 -15 -5 -38 -9 -51 -7 -19 -5 -22 11 -19 10 2 18 10 17
16 -2 7 3 12 11 12 27 0 26 17 -2 43 l-27 26 -1 -27z"/>
<path d="M650 1130 c-9 -6 -10 -10 -3 -10 6 0 15 5 18 10 8 12 4 12 -15 0z"/>
<path d="M635 1101 c-3 -5 -1 -12 5 -16 5 -3 10 1 10 9 0 18 -6 21 -15 7z"/>
<path d="M365 1090 c-3 -5 -1 -10 4 -10 6 0 11 5 11 10 0 6 -2 10 -4 10 -3 0
-8 -4 -11 -10z"/>
<path d="M1044 1072 c5 -8 66 -4 66 4 0 2 -16 4 -36 4 -19 0 -33 -4 -30 -8z"/>
<path d="M1877 1073 c-13 -12 -8 -35 6 -26 6 4 21 6 32 4 16 -3 17 -1 6 13
-14 17 -33 21 -44 9z"/>
<path d="M370 1061 c0 -5 7 -14 15 -21 16 -14 18 -10 9 14 -6 17 -24 22 -24 7z"/>
<path d="M550 1021 c0 -12 26 -32 33 -25 9 10 -4 34 -19 34 -8 0 -14 -4 -14
-9z"/>
<path d="M613 1015 c-3 -9 -3 -18 -1 -21 3 -3 8 4 11 16 6 23 -1 27 -10 5z"/>
<path d="M1096 1021 c-4 -7 -5 -15 -2 -18 9 -9 19 4 14 18 -4 11 -6 11 -12 0z"/>
<path d="M1300 1020 c0 -12 28 -25 36 -17 3 3 -4 10 -15 17 -15 7 -21 7 -21 0z"/>
<path d="M368 1013 c-10 -2 -18 -8 -18 -13 0 -5 7 -7 15 -4 8 4 15 1 15 -5 0
-6 9 -11 21 -11 15 0 19 4 15 16 -3 9 -6 18 -6 20 0 5 -18 4 -42 -3z"/>
<path d="M1615 1010 c3 -5 8 -10 11 -10 2 0 4 5 4 10 0 6 -5 10 -11 10 -5 0
-7 -4 -4 -10z"/>
<path d="M718 1003 c7 -3 16 -2 19 1 4 3 -2 6 -13 5 -11 0 -14 -3 -6 -6z"/>
<path d="M1251 984 c0 -11 3 -14 6 -6 3 7 2 16 -1 19 -3 4 -6 -2 -5 -13z"/>
<path d="M1085 980 c-3 -5 1 -10 10 -10 9 0 13 5 10 10 -3 6 -8 10 -10 10 -2
0 -7 -4 -10 -10z"/>
<path d="M363 963 c-20 -7 -15 -23 5 -17 16 5 16 5 0 -9 -28 -22 -23 -39 7
-25 14 6 25 17 25 25 0 7 5 13 10 13 6 0 10 -9 10 -20 0 -11 4 -20 9 -20 19 0
19 15 1 37 -13 17 -20 19 -29 10 -8 -8 -14 -9 -19 -1 -4 6 -13 9 -19 7z"/>
<path d="M1238 943 c7 -3 16 -2 19 1 4 3 -2 6 -13 5 -11 0 -14 -3 -6 -6z"/>
<path d="M1780 940 c0 -5 5 -10 11 -10 5 0 7 5 4 10 -3 6 -8 10 -11 10 -2 0
-4 -4 -4 -10z"/>
<path d="M2070 940 c0 -5 7 -10 16 -10 8 0 12 5 9 10 -3 6 -10 10 -16 10 -5 0
-9 -4 -9 -10z"/>
<path d="M399 908 c-8 -27 -6 -39 8 -34 8 3 21 6 29 6 8 0 14 4 14 10 0 5 -7
7 -15 4 -8 -4 -15 -1 -15 5 0 9 -18 17 -21 9z"/>
<path d="M854 868 c-3 -4 2 -8 10 -8 8 0 17 4 20 8 3 5 -2 9 -10 9 -8 0 -17
-4 -20 -9z"/>
<path d="M1916 856 c7 -18 35 -30 31 -13 -2 13 -17 27 -29 27 -4 0 -5 -6 -2
-14z"/>
<path d="M1160 817 c0 -14 4 -28 9 -32 5 -3 8 6 7 20 -4 35 -16 44 -16 12z"/>
<path d="M1126 814 c-8 -21 -8 -21 7 -27 10 -4 13 2 9 19 -5 28 -8 30 -16 8z"/>
<path d="M485 770 c3 -5 8 -10 11 -10 2 0 4 5 4 10 0 6 -5 10 -11 10 -5 0 -7
-4 -4 -10z"/>
<path d="M1203 753 c11 -26 12 -26 15 -5 2 12 8 20 13 17 5 -4 9 -1 9 4 0 6
-11 11 -25 11 -23 0 -24 -2 -12 -27z"/>
<path d="M1231 728 c-1 -10 6 -18 15 -18 8 0 12 -4 9 -10 -3 -5 -1 -10 4 -10
6 0 11 7 11 15 0 8 -6 15 -14 15 -8 0 -17 6 -19 13 -3 7 -6 5 -6 -5z"/>
<path d="M545 720 c3 -5 8 -10 11 -10 2 0 4 5 4 10 0 6 -5 10 -11 10 -5 0 -7
-4 -4 -10z"/>
<path d="M1220 644 c0 -8 5 -12 10 -9 6 3 10 10 10 16 0 5 -4 9 -10 9 -5 0
-10 -7 -10 -16z"/>
<path d="M1865 640 c-3 -5 -1 -10 4 -10 6 0 11 5 11 10 0 6 -2 10 -4 10 -3 0
-8 -4 -11 -10z"/>
<path d="M732 585 c0 -16 2 -22 5 -12 2 9 2 23 0 30 -3 6 -5 -1 -5 -18z"/>
<path d="M1205 600 c4 -6 11 -8 16 -5 14 9 11 15 -7 15 -8 0 -12 -5 -9 -10z"/>
<path d="M958 530 c-1 -27 0 -46 3 -42 11 12 20 92 10 92 -5 0 -11 -22 -13
-50z"/>
<path d="M1050 525 c0 -8 2 -15 4 -15 2 0 6 7 10 15 3 8 1 15 -4 15 -6 0 -10
-7 -10 -15z"/>
<path d="M1545 448 c-4 -10 -11 -15 -16 -12 -5 3 -9 1 -9 -5 0 -5 4 -12 9 -15
12 -8 34 20 28 36 -3 9 -7 8 -12 -4z"/>
<path d="M1315 400 c3 -5 12 -7 20 -3 21 7 19 13 -6 13 -11 0 -18 -4 -14 -10z"/>
<path d="M1220 370 c-8 -5 -12 -12 -9 -15 4 -3 12 1 19 10 14 17 11 19 -10 5z"/>
</g>
</svg>
